<mxfile host="65bd71144e">
    <diagram id="XFyOMNRHPZt_d9PDHA7L" name="Page-1">
        <mxGraphModel dx="2081" dy="1949" grid="1" gridSize="10" guides="0" tooltips="1" connect="1" arrows="1" fold="1" page="1" pageScale="1" pageWidth="1169" pageHeight="827" background="#ffffff" math="0" shadow="0">
            <root>
                <mxCell id="0"/>
                <mxCell id="1" parent="0"/>
                <mxCell id="277" style="edgeStyle=orthogonalEdgeStyle;rounded=1;jumpStyle=none;html=1;strokeColor=#000000;fontFamily=Helvetica;fontSize=12;fontColor=none;endArrow=classic;endFill=1;" parent="1" source="278" target="281" edge="1">
                    <mxGeometry relative="1" as="geometry"/>
                </mxCell>
                <mxCell id="278" value="Draft" style="rounded=1;whiteSpace=wrap;html=1;" parent="1" vertex="1">
                    <mxGeometry x="270" y="-710" width="120" height="60" as="geometry"/>
                </mxCell>
                <mxCell id="279" value="" style="edgeStyle=orthogonalEdgeStyle;rounded=1;jumpStyle=none;html=1;strokeColor=#000000;fontFamily=Helvetica;fontSize=12;fontColor=none;endArrow=classic;endFill=1;" parent="1" source="281" target="285" edge="1">
                    <mxGeometry relative="1" as="geometry"/>
                </mxCell>
                <mxCell id="280" style="edgeStyle=orthogonalEdgeStyle;rounded=1;jumpStyle=none;html=1;entryX=1.002;entryY=0.502;entryDx=0;entryDy=0;entryPerimeter=0;strokeColor=#000000;fontFamily=Helvetica;fontSize=12;fontColor=none;endArrow=classic;endFill=1;" parent="1" source="281" target="292" edge="1">
                    <mxGeometry relative="1" as="geometry">
                        <Array as="points">
                            <mxPoint x="430" y="-545"/>
                            <mxPoint x="430" y="-275"/>
                        </Array>
                    </mxGeometry>
                </mxCell>
                <mxCell id="281" value="Needs&amp;nbsp; other parent approval?" style="html=1;whiteSpace=wrap;aspect=fixed;shape=isoRectangle;perimeterSpacing=0;" parent="1" vertex="1">
                    <mxGeometry x="255" y="-590" width="150" height="90" as="geometry"/>
                </mxCell>
                <mxCell id="282" value="" style="edgeStyle=orthogonalEdgeStyle;rounded=1;jumpStyle=none;html=1;strokeColor=#000000;fontFamily=Helvetica;fontSize=12;fontColor=none;endArrow=classic;endFill=1;" parent="1" source="285" target="292" edge="1">
                    <mxGeometry relative="1" as="geometry"/>
                </mxCell>
                <mxCell id="283" style="edgeStyle=orthogonalEdgeStyle;rounded=1;jumpStyle=none;html=1;exitX=-0.005;exitY=0.676;exitDx=0;exitDy=0;entryX=1;entryY=0.5;entryDx=0;entryDy=0;strokeColor=#000000;fontFamily=Helvetica;fontSize=12;fontColor=none;endArrow=classic;endFill=1;exitPerimeter=0;" parent="1" source="285" target="310" edge="1">
                    <mxGeometry relative="1" as="geometry">
                        <Array as="points">
                            <mxPoint x="180" y="-400"/>
                            <mxPoint x="180" y="-320"/>
                        </Array>
                    </mxGeometry>
                </mxCell>
                <mxCell id="284" style="edgeStyle=orthogonalEdgeStyle;rounded=1;jumpStyle=none;html=1;exitX=0;exitY=0.25;exitDx=0;exitDy=0;entryX=0;entryY=0.5;entryDx=0;entryDy=0;strokeColor=#000000;fontFamily=Helvetica;fontSize=12;fontColor=none;endArrow=classic;endFill=1;" parent="1" source="285" target="278" edge="1">
                    <mxGeometry relative="1" as="geometry">
                        <Array as="points">
                            <mxPoint x="210" y="-426"/>
                            <mxPoint x="210" y="-680"/>
                        </Array>
                    </mxGeometry>
                </mxCell>
                <mxCell id="285" value="Other Parent&lt;br&gt;Approval" style="rounded=1;whiteSpace=wrap;html=1;" parent="1" vertex="1">
                    <mxGeometry x="270" y="-441" width="120" height="60" as="geometry"/>
                </mxCell>
                <mxCell id="286" value="&lt;font color=&quot;#000000&quot;&gt;yes&lt;/font&gt;" style="text;html=1;align=center;verticalAlign=middle;resizable=0;points=[];autosize=1;strokeColor=none;fillColor=none;" parent="1" vertex="1">
                    <mxGeometry x="330" y="-490" width="40" height="30" as="geometry"/>
                </mxCell>
                <mxCell id="287" value="" style="edgeStyle=none;html=1;strokeColor=#000000;fontColor=#000000;" parent="1" source="289" target="298" edge="1">
                    <mxGeometry relative="1" as="geometry"/>
                </mxCell>
                <mxCell id="288" style="edgeStyle=orthogonalEdgeStyle;rounded=1;jumpStyle=none;html=1;strokeColor=#000000;fontFamily=Helvetica;fontSize=12;fontColor=none;endArrow=classic;endFill=1;exitX=0;exitY=0.5;exitDx=0;exitDy=0;" parent="1" source="289" edge="1">
                    <mxGeometry relative="1" as="geometry">
                        <mxPoint x="270" y="-680" as="targetPoint"/>
                        <Array as="points">
                            <mxPoint x="210" y="-140"/>
                            <mxPoint x="210" y="-680"/>
                        </Array>
                    </mxGeometry>
                </mxCell>
                <mxCell id="289" value="Employer Waiting to Assign" style="rounded=1;whiteSpace=wrap;html=1;" parent="1" vertex="1">
                    <mxGeometry x="270" y="-170" width="120" height="60" as="geometry"/>
                </mxCell>
                <mxCell id="290" style="edgeStyle=orthogonalEdgeStyle;rounded=1;jumpStyle=none;html=1;strokeColor=#000000;fontFamily=Helvetica;fontSize=12;fontColor=none;endArrow=classic;endFill=1;" parent="1" source="292" target="289" edge="1">
                    <mxGeometry relative="1" as="geometry"/>
                </mxCell>
                <mxCell id="291" style="edgeStyle=orthogonalEdgeStyle;rounded=1;jumpStyle=none;html=1;entryX=0.5;entryY=0;entryDx=0;entryDy=0;strokeColor=#000000;fontFamily=Helvetica;fontSize=12;fontColor=none;endArrow=classic;endFill=1;exitX=1.004;exitY=0.501;exitDx=0;exitDy=0;exitPerimeter=0;" parent="1" source="292" target="306" edge="1">
                    <mxGeometry relative="1" as="geometry">
                        <Array as="points">
                            <mxPoint x="430" y="-275"/>
                            <mxPoint x="430" y="30"/>
                            <mxPoint x="330" y="30"/>
                        </Array>
                    </mxGeometry>
                </mxCell>
                <mxCell id="292" value="Has employer?" style="html=1;whiteSpace=wrap;aspect=fixed;shape=isoRectangle;perimeterSpacing=0;" parent="1" vertex="1">
                    <mxGeometry x="255" y="-320" width="150" height="90" as="geometry"/>
                </mxCell>
                <mxCell id="293" value="No" style="text;html=1;align=center;verticalAlign=middle;resizable=0;points=[];autosize=1;strokeColor=none;fillColor=none;fontColor=#000000;" parent="1" vertex="1">
                    <mxGeometry x="430" y="-420" width="40" height="30" as="geometry"/>
                </mxCell>
                <mxCell id="294" value="Approve" style="text;html=1;align=center;verticalAlign=middle;resizable=0;points=[];autosize=1;strokeColor=none;fillColor=none;fontColor=#000000;" parent="1" vertex="1">
                    <mxGeometry x="330" y="-370" width="70" height="30" as="geometry"/>
                </mxCell>
                <mxCell id="295" style="edgeStyle=orthogonalEdgeStyle;rounded=1;jumpStyle=none;html=1;strokeColor=#000000;fontFamily=Helvetica;fontSize=12;fontColor=none;endArrow=classic;endFill=1;exitX=0;exitY=0.25;exitDx=0;exitDy=0;" parent="1" source="298" target="292" edge="1">
                    <mxGeometry relative="1" as="geometry">
                        <Array as="points">
                            <mxPoint x="230" y="-35"/>
                            <mxPoint x="230" y="-275"/>
                        </Array>
                    </mxGeometry>
                </mxCell>
                <mxCell id="296" style="edgeStyle=orthogonalEdgeStyle;rounded=1;jumpStyle=none;html=1;exitX=0;exitY=0.5;exitDx=0;exitDy=0;entryX=1;entryY=0.5;entryDx=0;entryDy=0;strokeColor=#000000;fontFamily=Helvetica;fontSize=12;fontColor=none;endArrow=classic;endFill=1;" parent="1" source="298" target="310" edge="1">
                    <mxGeometry relative="1" as="geometry"/>
                </mxCell>
                <mxCell id="297" style="edgeStyle=orthogonalEdgeStyle;rounded=1;jumpStyle=none;html=1;exitX=0;exitY=0.75;exitDx=0;exitDy=0;entryX=0;entryY=0.5;entryDx=0;entryDy=0;strokeColor=#000000;fontFamily=Helvetica;fontSize=12;fontColor=none;endArrow=classic;endFill=1;" parent="1" source="298" target="278" edge="1">
                    <mxGeometry relative="1" as="geometry">
                        <Array as="points">
                            <mxPoint x="210" y="-5"/>
                            <mxPoint x="210" y="-680"/>
                        </Array>
                    </mxGeometry>
                </mxCell>
                <mxCell id="298" value="Employer&lt;br&gt;Approval" style="rounded=1;whiteSpace=wrap;html=1;" parent="1" vertex="1">
                    <mxGeometry x="270" y="-50" width="120" height="60" as="geometry"/>
                </mxCell>
                <mxCell id="299" value="Assign" style="text;html=1;align=center;verticalAlign=middle;resizable=0;points=[];autosize=1;strokeColor=none;fillColor=none;fontColor=#000000;" parent="1" vertex="1">
                    <mxGeometry x="330" y="-100" width="60" height="30" as="geometry"/>
                </mxCell>
                <mxCell id="300" value="Yes" style="text;html=1;align=center;verticalAlign=middle;resizable=0;points=[];autosize=1;strokeColor=none;fillColor=none;fontColor=#000000;" parent="1" vertex="1">
                    <mxGeometry x="330" y="-220" width="40" height="30" as="geometry"/>
                </mxCell>
                <mxCell id="301" value="" style="edgeStyle=orthogonalEdgeStyle;rounded=1;jumpStyle=none;html=1;strokeColor=#000000;fontFamily=Helvetica;fontSize=12;fontColor=none;endArrow=classic;endFill=1;" parent="1" source="306" target="318" edge="1">
                    <mxGeometry relative="1" as="geometry"/>
                </mxCell>
                <mxCell id="302" style="edgeStyle=orthogonalEdgeStyle;rounded=1;jumpStyle=none;html=1;exitX=0;exitY=0.75;exitDx=0;exitDy=0;strokeColor=#000000;fontFamily=Helvetica;fontSize=12;fontColor=none;endArrow=classic;endFill=1;" parent="1" source="306" target="321" edge="1">
                    <mxGeometry relative="1" as="geometry"/>
                </mxCell>
                <mxCell id="303" style="edgeStyle=orthogonalEdgeStyle;rounded=1;jumpStyle=none;html=1;exitX=0;exitY=0.25;exitDx=0;exitDy=0;entryX=0.5;entryY=1;entryDx=0;entryDy=0;strokeColor=#000000;fontFamily=Helvetica;fontSize=12;fontColor=none;endArrow=classic;endFill=1;" parent="1" source="306" target="310" edge="1">
                    <mxGeometry relative="1" as="geometry"/>
                </mxCell>
                <mxCell id="304" style="edgeStyle=orthogonalEdgeStyle;rounded=1;jumpStyle=none;html=1;exitX=1;exitY=0.75;exitDx=0;exitDy=0;strokeColor=#000000;fontFamily=Helvetica;fontSize=12;fontColor=none;endArrow=classic;endFill=1;entryX=0.5;entryY=1;entryDx=0;entryDy=0;" parent="1" source="306" target="328" edge="1">
                    <mxGeometry relative="1" as="geometry"/>
                </mxCell>
                <mxCell id="305" style="edgeStyle=orthogonalEdgeStyle;rounded=1;jumpStyle=none;html=1;exitX=0.75;exitY=0;exitDx=0;exitDy=0;entryX=-0.003;entryY=0.505;entryDx=0;entryDy=0;entryPerimeter=0;strokeColor=#000000;fontFamily=Helvetica;fontSize=12;fontColor=none;endArrow=classic;endFill=1;" parent="1" source="306" target="341" edge="1">
                    <mxGeometry relative="1" as="geometry">
                        <Array as="points">
                            <mxPoint x="360" y="50"/>
                            <mxPoint x="480" y="50"/>
                            <mxPoint x="480" y="-669"/>
                        </Array>
                    </mxGeometry>
                </mxCell>
                <mxCell id="392" style="edgeStyle=none;html=1;exitX=0;exitY=0.5;exitDx=0;exitDy=0;entryX=0;entryY=0.25;entryDx=0;entryDy=0;" edge="1" parent="1" source="306" target="351">
                    <mxGeometry relative="1" as="geometry">
                        <Array as="points">
                            <mxPoint x="240" y="105"/>
                            <mxPoint x="240" y="335"/>
                        </Array>
                    </mxGeometry>
                </mxCell>
                <mxCell id="306" value="VMST Approval" style="rounded=1;whiteSpace=wrap;html=1;" parent="1" vertex="1">
                    <mxGeometry x="270" y="70" width="120" height="70" as="geometry"/>
                </mxCell>
                <mxCell id="307" value="Sumbit" style="text;html=1;align=center;verticalAlign=middle;resizable=0;points=[];autosize=1;strokeColor=none;fillColor=none;fontColor=#000000;" parent="1" vertex="1">
                    <mxGeometry x="330" y="-640" width="60" height="30" as="geometry"/>
                </mxCell>
                <mxCell id="308" value="" style="shape=stencil(fZbdcgIhDIWfZm8zQAg/17Z9j85U606tdqz9e/tmZ0c0uJ47xP0I5JwEBl59bp8/1kNwn6fj4W39M76ctgM/DCGM++36OJ50NPDjwKvN4bh+PR6+9i/z74/n6ctp9H74nlb4nbmSKZeJCu5vngmZ6jzzNAO7cX8FVKEsBuBKrgKg9oAE8gkCbLeUhEoEQKSUDZDLeWYRKIl8MEDRmHwfyBrBG6Amyu4+kDxxMoB3jhwgYu7TVAsVkFcWCs4CTBEoF4RctKeOxHIf8IXYpikHikAIf+MNUW94AGSSaoAoFIE3AlOyeWU+p2E5S9yfQZcQILVuQOwZdJNoS9Ls3wA5u2XZTIHECqeJ9kDpSaauRiNVcAY1QhdBzeLBli5WazpkSsBLV25uRaqWRyFawTQzRRIQYirJzq5atkBqLfouwqUxLBepthWb10vrWZY6UOAeyKCCtDV625mm9gmUC4Wc3VLJMMIE1BsA2FW9JraVlQB7n3c9oMKhCLEvIM1zBPZ25/umNQ1tVEC2G+fFCC8g398O2hNQuQlVu752DBfA+q0ptnqO5JFmeuIuo9DY7KjY71UxdJV4EntifPWorW++R/dC4t7V3DlIB5cHx2bc7eb3yvX//QNFp+bHDT/+Aw==);lineShape=1;labelBackgroundColor=none;fontFamily=Helvetica;fontSize=12;fontColor=none;" parent="1" vertex="1">
                    <mxGeometry x="222.86469530547333" y="-428.2014963591471" width="1.507270894230861" height="1.5049149085024833" as="geometry"/>
                </mxCell>
                <mxCell id="309" style="edgeStyle=orthogonalEdgeStyle;rounded=1;jumpStyle=none;html=1;entryX=0;entryY=0.5;entryDx=0;entryDy=0;strokeColor=#000000;fontFamily=Helvetica;fontSize=12;fontColor=none;endArrow=classic;endFill=1;exitX=0.5;exitY=0;exitDx=0;exitDy=0;" parent="1" source="310" target="278" edge="1">
                    <mxGeometry relative="1" as="geometry">
                        <Array as="points">
                            <mxPoint x="30" y="-680"/>
                        </Array>
                    </mxGeometry>
                </mxCell>
                <mxCell id="395" style="edgeStyle=none;html=1;exitX=0.25;exitY=1;exitDx=0;exitDy=0;entryX=0;entryY=0.75;entryDx=0;entryDy=0;" edge="1" parent="1" source="310" target="351">
                    <mxGeometry relative="1" as="geometry">
                        <mxPoint x="270" y="380" as="targetPoint"/>
                        <Array as="points">
                            <mxPoint y="365"/>
                        </Array>
                    </mxGeometry>
                </mxCell>
                <mxCell id="310" value="Needs&lt;br&gt;Action" style="rounded=1;whiteSpace=wrap;html=1;" parent="1" vertex="1">
                    <mxGeometry x="-30" y="-350" width="120" height="60" as="geometry"/>
                </mxCell>
                <mxCell id="311" value="Reject" style="text;html=1;align=center;verticalAlign=middle;resizable=0;points=[];autosize=1;strokeColor=none;fillColor=none;fontSize=12;fontFamily=Helvetica;fontColor=none;labelBackgroundColor=none;" parent="1" vertex="1">
                    <mxGeometry x="110" y="-350" width="60" height="30" as="geometry"/>
                </mxCell>
                <mxCell id="312" value="No" style="text;html=1;align=center;verticalAlign=middle;resizable=0;points=[];autosize=1;strokeColor=none;fillColor=none;fontSize=12;fontFamily=Helvetica;fontColor=none;labelBackgroundColor=none;" parent="1" vertex="1">
                    <mxGeometry x="430" y="-140" width="40" height="30" as="geometry"/>
                </mxCell>
                <mxCell id="313" value="Approve" style="text;html=1;align=center;verticalAlign=middle;resizable=0;points=[];autosize=1;strokeColor=none;fillColor=none;fontSize=12;fontFamily=Helvetica;fontColor=none;" parent="1" vertex="1">
                    <mxGeometry x="230" y="-220" width="70" height="30" as="geometry"/>
                </mxCell>
                <mxCell id="314" value="Edit" style="text;html=1;align=center;verticalAlign=middle;resizable=0;points=[];autosize=1;strokeColor=none;fillColor=none;fontSize=12;fontFamily=Helvetica;fontColor=none;labelBackgroundColor=none;" parent="1" vertex="1">
                    <mxGeometry x="170" y="-580" width="40" height="30" as="geometry"/>
                </mxCell>
                <mxCell id="315" value="Edit" style="text;html=1;align=center;verticalAlign=middle;resizable=0;points=[];autosize=1;strokeColor=none;fillColor=none;fontSize=12;fontFamily=Helvetica;fontColor=none;labelBackgroundColor=none;" parent="1" vertex="1">
                    <mxGeometry x="70" y="-710" width="40" height="30" as="geometry"/>
                </mxCell>
                <mxCell id="316" value="" style="edgeStyle=orthogonalEdgeStyle;rounded=1;jumpStyle=none;html=1;strokeColor=#000000;fontFamily=Helvetica;fontSize=12;fontColor=none;endArrow=classic;endFill=1;" parent="1" source="318" target="351" edge="1">
                    <mxGeometry relative="1" as="geometry"/>
                </mxCell>
                <mxCell id="317" style="edgeStyle=orthogonalEdgeStyle;rounded=1;jumpStyle=none;html=1;entryX=0.5;entryY=1;entryDx=0;entryDy=0;strokeColor=#000000;fontFamily=Helvetica;fontSize=12;fontColor=none;endArrow=classic;endFill=1;exitX=0.833;exitY=-0.013;exitDx=0;exitDy=0;exitPerimeter=0;" parent="1" source="318" target="328" edge="1">
                    <mxGeometry relative="1" as="geometry">
                        <Array as="points">
                            <mxPoint x="370" y="170"/>
                            <mxPoint x="710" y="170"/>
                        </Array>
                    </mxGeometry>
                </mxCell>
                <mxCell id="318" value="Approved" style="rounded=1;whiteSpace=wrap;html=1;" parent="1" vertex="1">
                    <mxGeometry x="270" y="200" width="120" height="60" as="geometry"/>
                </mxCell>
                <mxCell id="319" value="Approve" style="text;html=1;align=center;verticalAlign=middle;resizable=0;points=[];autosize=1;strokeColor=none;fillColor=none;fontSize=12;fontFamily=Helvetica;fontColor=none;" parent="1" vertex="1">
                    <mxGeometry x="260" y="155" width="70" height="30" as="geometry"/>
                </mxCell>
                <mxCell id="320" style="edgeStyle=orthogonalEdgeStyle;rounded=1;jumpStyle=none;html=1;strokeColor=#000000;fontFamily=Helvetica;fontSize=12;fontColor=none;endArrow=classic;endFill=1;exitX=0.5;exitY=1;exitDx=0;exitDy=0;entryX=0.662;entryY=1.014;entryDx=0;entryDy=0;entryPerimeter=0;" parent="1" source="321" target="349" edge="1">
                    <mxGeometry relative="1" as="geometry">
                        <Array as="points">
                            <mxPoint x="150" y="390"/>
                            <mxPoint x="1130" y="390"/>
                            <mxPoint x="1130" y="71"/>
                        </Array>
                    </mxGeometry>
                </mxCell>
                <mxCell id="394" style="edgeStyle=none;html=1;exitX=0.75;exitY=1;exitDx=0;exitDy=0;entryX=0;entryY=0.5;entryDx=0;entryDy=0;" edge="1" parent="1" source="321" target="351">
                    <mxGeometry relative="1" as="geometry">
                        <Array as="points">
                            <mxPoint x="180" y="350"/>
                        </Array>
                    </mxGeometry>
                </mxCell>
                <mxCell id="321" value="Additional&lt;br&gt;Documents&lt;br&gt;Required" style="rounded=1;whiteSpace=wrap;html=1;" parent="1" vertex="1">
                    <mxGeometry x="90" y="200" width="120" height="60" as="geometry"/>
                </mxCell>
                <mxCell id="322" value="Additional&lt;br&gt;Documents&lt;br&gt;Required" style="text;html=1;align=center;verticalAlign=middle;resizable=0;points=[];autosize=1;strokeColor=none;fillColor=none;fontSize=12;fontFamily=Helvetica;fontColor=none;labelBackgroundColor=none;" parent="1" vertex="1">
                    <mxGeometry x="150" y="120" width="80" height="60" as="geometry"/>
                </mxCell>
                <mxCell id="323" value="Reject" style="text;html=1;align=center;verticalAlign=middle;resizable=0;points=[];autosize=1;strokeColor=none;fillColor=none;fontSize=12;fontFamily=Helvetica;fontColor=none;labelBackgroundColor=none;" parent="1" vertex="1">
                    <mxGeometry x="-30" y="-185" width="60" height="30" as="geometry"/>
                </mxCell>
                <mxCell id="324" value="" style="edgeStyle=orthogonalEdgeStyle;rounded=1;jumpStyle=none;html=1;strokeColor=#000000;fontFamily=Helvetica;fontSize=12;fontColor=none;endArrow=classic;endFill=1;entryX=-0.002;entryY=0.5;entryDx=0;entryDy=0;entryPerimeter=0;exitX=1;exitY=0.5;exitDx=0;exitDy=0;" parent="1" source="328" target="357" edge="1">
                    <mxGeometry relative="1" as="geometry"/>
                </mxCell>
                <mxCell id="325" style="edgeStyle=orthogonalEdgeStyle;rounded=1;jumpStyle=none;html=1;entryX=1;entryY=0.25;entryDx=0;entryDy=0;strokeColor=#000000;fontFamily=Helvetica;fontSize=12;fontColor=none;endArrow=classic;endFill=1;exitX=0.659;exitY=1.009;exitDx=0;exitDy=0;exitPerimeter=0;" parent="1" source="328" target="318" edge="1">
                    <mxGeometry relative="1" as="geometry">
                        <Array as="points">
                            <mxPoint x="729" y="215"/>
                        </Array>
                    </mxGeometry>
                </mxCell>
                <mxCell id="326" style="edgeStyle=orthogonalEdgeStyle;rounded=1;jumpStyle=none;html=1;entryX=0.174;entryY=1.019;entryDx=0;entryDy=0;strokeColor=#000000;fontFamily=Helvetica;fontSize=12;fontColor=none;endArrow=classic;endFill=1;exitX=0.866;exitY=0.984;exitDx=0;exitDy=0;exitPerimeter=0;entryPerimeter=0;" parent="1" source="328" target="349" edge="1">
                    <mxGeometry relative="1" as="geometry">
                        <Array as="points">
                            <mxPoint x="754" y="100"/>
                            <mxPoint x="1071" y="100"/>
                        </Array>
                    </mxGeometry>
                </mxCell>
                <mxCell id="327" style="edgeStyle=orthogonalEdgeStyle;rounded=1;jumpStyle=none;html=1;exitX=0.25;exitY=1;exitDx=0;exitDy=0;entryX=1;entryY=0.5;entryDx=0;entryDy=0;strokeColor=#000000;fontFamily=Helvetica;fontSize=12;fontColor=none;endArrow=classic;endFill=1;" parent="1" source="328" target="306" edge="1">
                    <mxGeometry relative="1" as="geometry"/>
                </mxCell>
                <mxCell id="398" style="edgeStyle=none;html=1;exitX=0.25;exitY=1;exitDx=0;exitDy=0;entryX=1;entryY=0.25;entryDx=0;entryDy=0;" edge="1" parent="1" source="328" target="351">
                    <mxGeometry relative="1" as="geometry">
                        <Array as="points">
                            <mxPoint x="680" y="335"/>
                        </Array>
                    </mxGeometry>
                </mxCell>
                <mxCell id="328" value="Edit&lt;br&gt;Periods&amp;nbsp;&lt;br&gt;or Employers" style="rounded=1;whiteSpace=wrap;html=1;" parent="1" vertex="1">
                    <mxGeometry x="650" y="10" width="120" height="60" as="geometry"/>
                </mxCell>
                <mxCell id="329" value="Edit Periods or Employers" style="text;html=1;align=center;verticalAlign=middle;resizable=0;points=[];autosize=1;strokeColor=none;fillColor=none;fontSize=12;fontFamily=Helvetica;fontColor=none;" parent="1" vertex="1">
                    <mxGeometry x="529" y="137" width="160" height="30" as="geometry"/>
                </mxCell>
                <mxCell id="330" style="edgeStyle=orthogonalEdgeStyle;html=1;entryX=1.006;entryY=0.332;entryDx=0;entryDy=0;strokeColor=#000000;fontColor=#FF0000;exitX=0.5;exitY=1;exitDx=0;exitDy=0;entryPerimeter=0;" parent="1" source="334" target="338" edge="1">
                    <mxGeometry relative="1" as="geometry"/>
                </mxCell>
                <mxCell id="331" style="edgeStyle=orthogonalEdgeStyle;html=1;entryX=1;entryY=0.5;entryDx=0;entryDy=0;strokeColor=#000000;" parent="1" source="334" target="349" edge="1">
                    <mxGeometry relative="1" as="geometry">
                        <Array as="points">
                            <mxPoint x="1230" y="-670"/>
                            <mxPoint x="1230" y="40"/>
                        </Array>
                    </mxGeometry>
                </mxCell>
                <mxCell id="332" style="edgeStyle=orthogonalEdgeStyle;html=1;exitX=0.25;exitY=1;exitDx=0;exitDy=0;entryX=0.671;entryY=0;entryDx=0;entryDy=0;entryPerimeter=0;strokeColor=#000000;" parent="1" source="334" target="318" edge="1">
                    <mxGeometry relative="1" as="geometry">
                        <Array as="points">
                            <mxPoint x="880" y="-470"/>
                            <mxPoint x="540" y="-470"/>
                            <mxPoint x="540" y="150"/>
                            <mxPoint x="351" y="150"/>
                        </Array>
                    </mxGeometry>
                </mxCell>
                <mxCell id="333" style="edgeStyle=orthogonalEdgeStyle;html=1;strokeColor=#000000;entryX=0.996;entryY=0.284;entryDx=0;entryDy=0;entryPerimeter=0;" parent="1" target="306" edge="1">
                    <mxGeometry relative="1" as="geometry">
                        <mxPoint x="880" y="-640" as="sourcePoint"/>
                        <mxPoint x="410" y="70" as="targetPoint"/>
                        <Array as="points">
                            <mxPoint x="880" y="-470"/>
                            <mxPoint x="540" y="-470"/>
                            <mxPoint x="540" y="90"/>
                        </Array>
                    </mxGeometry>
                </mxCell>
                <mxCell id="411" style="edgeStyle=none;html=1;exitX=0.75;exitY=1;exitDx=0;exitDy=0;endArrow=none;endFill=0;" edge="1" parent="1" source="334">
                    <mxGeometry relative="1" as="geometry">
                        <mxPoint x="780" y="-310" as="targetPoint"/>
                        <Array as="points">
                            <mxPoint x="940" y="-410"/>
                            <mxPoint x="780" y="-410"/>
                        </Array>
                    </mxGeometry>
                </mxCell>
                <mxCell id="334" value="Residence&lt;br&gt;Grant&lt;br&gt;No Birth Date" style="rounded=1;whiteSpace=wrap;html=1;" parent="1" vertex="1">
                    <mxGeometry x="850" y="-700" width="120" height="60" as="geometry"/>
                </mxCell>
                <mxCell id="335" style="edgeStyle=orthogonalEdgeStyle;html=1;entryX=1.007;entryY=0.167;entryDx=0;entryDy=0;strokeColor=#000000;exitX=1.002;exitY=0.659;exitDx=0;exitDy=0;entryPerimeter=0;exitPerimeter=0;" parent="1" source="338" target="349" edge="1">
                    <mxGeometry relative="1" as="geometry">
                        <Array as="points">
                            <mxPoint x="1210" y="-530"/>
                            <mxPoint x="1210" y="20"/>
                        </Array>
                    </mxGeometry>
                </mxCell>
                <mxCell id="336" style="edgeStyle=orthogonalEdgeStyle;html=1;entryX=0.667;entryY=0;entryDx=0;entryDy=0;entryPerimeter=0;strokeColor=#000000;exitX=0;exitY=0.5;exitDx=0;exitDy=0;" parent="1" source="338" target="318" edge="1">
                    <mxGeometry relative="1" as="geometry">
                        <Array as="points">
                            <mxPoint x="540" y="-540"/>
                            <mxPoint x="540" y="150"/>
                            <mxPoint x="350" y="150"/>
                        </Array>
                    </mxGeometry>
                </mxCell>
                <mxCell id="337" style="edgeStyle=orthogonalEdgeStyle;html=1;strokeColor=#000000;entryX=0.996;entryY=0.279;entryDx=0;entryDy=0;entryPerimeter=0;exitX=0;exitY=0.5;exitDx=0;exitDy=0;" parent="1" source="338" target="306" edge="1">
                    <mxGeometry relative="1" as="geometry">
                        <mxPoint x="390" y="90" as="targetPoint"/>
                        <Array as="points">
                            <mxPoint x="540" y="-540"/>
                            <mxPoint x="540" y="90"/>
                        </Array>
                    </mxGeometry>
                </mxCell>
                <mxCell id="412" style="edgeStyle=none;html=1;exitX=0.5;exitY=1;exitDx=0;exitDy=0;endArrow=none;endFill=0;" edge="1" parent="1" source="338">
                    <mxGeometry relative="1" as="geometry">
                        <mxPoint x="780" y="-390" as="targetPoint"/>
                        <Array as="points">
                            <mxPoint x="710" y="-390"/>
                        </Array>
                    </mxGeometry>
                </mxCell>
                <mxCell id="338" value="Residence&lt;br&gt;Grant&lt;br&gt;" style="rounded=1;whiteSpace=wrap;html=1;" parent="1" vertex="1">
                    <mxGeometry x="650" y="-570" width="120" height="60" as="geometry"/>
                </mxCell>
                <mxCell id="339" value="" style="edgeStyle=orthogonalEdgeStyle;rounded=1;jumpStyle=none;html=1;strokeColor=#000000;fontFamily=Helvetica;fontSize=12;fontColor=none;endArrow=classic;endFill=1;" parent="1" source="341" target="334" edge="1">
                    <mxGeometry relative="1" as="geometry"/>
                </mxCell>
                <mxCell id="340" value="" style="edgeStyle=orthogonalEdgeStyle;rounded=1;jumpStyle=none;html=1;strokeColor=#000000;fontFamily=Helvetica;fontSize=12;fontColor=none;endArrow=classic;endFill=1;" parent="1" source="341" target="338" edge="1">
                    <mxGeometry relative="1" as="geometry"/>
                </mxCell>
                <mxCell id="341" value="Has date of birth?" style="html=1;whiteSpace=wrap;aspect=fixed;shape=isoRectangle;perimeterSpacing=0;" parent="1" vertex="1">
                    <mxGeometry x="635" y="-715" width="150" height="90" as="geometry"/>
                </mxCell>
                <mxCell id="342" value="Yes" style="text;html=1;align=center;verticalAlign=middle;resizable=0;points=[];autosize=1;strokeColor=none;fillColor=none;fontSize=12;fontFamily=Helvetica;fontColor=none;" parent="1" vertex="1">
                    <mxGeometry x="710" y="-625" width="40" height="30" as="geometry"/>
                </mxCell>
                <mxCell id="343" value="No" style="text;html=1;align=center;verticalAlign=middle;resizable=0;points=[];autosize=1;strokeColor=none;fillColor=none;fontSize=12;fontFamily=Helvetica;fontColor=none;" parent="1" vertex="1">
                    <mxGeometry x="800" y="-700" width="40" height="30" as="geometry"/>
                </mxCell>
                <mxCell id="344" style="edgeStyle=orthogonalEdgeStyle;html=1;entryX=1;entryY=0.75;entryDx=0;entryDy=0;strokeColor=#000000;exitX=0.5;exitY=1;exitDx=0;exitDy=0;" parent="1" source="349" target="318" edge="1">
                    <mxGeometry relative="1" as="geometry"/>
                </mxCell>
                <mxCell id="345" style="edgeStyle=orthogonalEdgeStyle;html=1;entryX=0.25;entryY=1;entryDx=0;entryDy=0;strokeColor=#000000;fontColor=#000000;exitX=0.831;exitY=1.017;exitDx=0;exitDy=0;exitPerimeter=0;" parent="1" source="349" target="321" edge="1">
                    <mxGeometry relative="1" as="geometry">
                        <Array as="points">
                            <mxPoint x="1150" y="430"/>
                            <mxPoint x="120" y="430"/>
                        </Array>
                    </mxGeometry>
                </mxCell>
                <mxCell id="346" style="edgeStyle=orthogonalEdgeStyle;html=1;entryX=1;entryY=0.75;entryDx=0;entryDy=0;strokeColor=#000000;fontColor=#000000;exitX=0.328;exitY=0.006;exitDx=0;exitDy=0;exitPerimeter=0;" parent="1" source="349" target="374" edge="1">
                    <mxGeometry relative="1" as="geometry"/>
                </mxCell>
                <mxCell id="347" style="edgeStyle=orthogonalEdgeStyle;html=1;entryX=0.75;entryY=1;entryDx=0;entryDy=0;strokeColor=#000000;fontColor=#000000;exitX=0.338;exitY=0.996;exitDx=0;exitDy=0;exitPerimeter=0;" parent="1" source="349" target="328" edge="1">
                    <mxGeometry relative="1" as="geometry">
                        <Array as="points">
                            <mxPoint x="1091" y="150"/>
                            <mxPoint x="740" y="150"/>
                        </Array>
                    </mxGeometry>
                </mxCell>
                <mxCell id="348" style="edgeStyle=orthogonalEdgeStyle;html=1;entryX=0.499;entryY=-0.004;entryDx=0;entryDy=0;entryPerimeter=0;strokeColor=#000000;fontColor=#000000;exitX=1.007;exitY=0.833;exitDx=0;exitDy=0;exitPerimeter=0;" parent="1" source="349" target="341" edge="1">
                    <mxGeometry relative="1" as="geometry">
                        <Array as="points">
                            <mxPoint x="1250" y="60"/>
                            <mxPoint x="1250" y="-740"/>
                            <mxPoint x="710" y="-740"/>
                        </Array>
                    </mxGeometry>
                </mxCell>
                <mxCell id="406" style="edgeStyle=none;html=1;exitX=0.25;exitY=1;exitDx=0;exitDy=0;endArrow=none;endFill=0;" edge="1" parent="1" source="349">
                    <mxGeometry relative="1" as="geometry">
                        <mxPoint x="760" y="350" as="targetPoint"/>
                        <Array as="points">
                            <mxPoint x="1080" y="350"/>
                        </Array>
                    </mxGeometry>
                </mxCell>
                <mxCell id="349" value="VMST&lt;br&gt;Approve Edits" style="rounded=1;whiteSpace=wrap;html=1;" parent="1" vertex="1">
                    <mxGeometry x="1050" y="10" width="120" height="60" as="geometry"/>
                </mxCell>
                <mxCell id="350" value="Approve / Send documents(s)" style="text;html=1;align=center;verticalAlign=middle;resizable=0;points=[];autosize=1;strokeColor=none;fillColor=none;fontSize=12;fontFamily=Helvetica;fontColor=none;" parent="1" vertex="1">
                    <mxGeometry x="550" y="360" width="180" height="30" as="geometry"/>
                </mxCell>
                <mxCell id="351" value="Closed" style="rounded=1;whiteSpace=wrap;html=1;" parent="1" vertex="1">
                    <mxGeometry x="270" y="320" width="120" height="60" as="geometry"/>
                </mxCell>
                <mxCell id="352" value="Closed" style="text;html=1;align=center;verticalAlign=middle;resizable=0;points=[];autosize=1;strokeColor=none;fillColor=none;fontSize=12;fontFamily=Helvetica;fontColor=none;labelBackgroundColor=none;" parent="1" vertex="1">
                    <mxGeometry x="335" y="275" width="60" height="30" as="geometry"/>
                </mxCell>
                <mxCell id="353" value="Submit / Apply" style="text;html=1;align=center;verticalAlign=middle;resizable=0;points=[];autosize=1;strokeColor=none;fillColor=none;fontSize=12;fontFamily=Helvetica;fontColor=none;labelBackgroundColor=none;" parent="1" vertex="1">
                    <mxGeometry x="520" y="-670" width="100" height="30" as="geometry"/>
                </mxCell>
                <mxCell id="354" style="edgeStyle=orthogonalEdgeStyle;rounded=1;jumpStyle=none;html=1;exitX=0;exitY=0.5;exitDx=0;exitDy=0;strokeColor=#000000;fontFamily=Helvetica;fontSize=12;fontColor=none;endArrow=classic;endFill=1;entryX=-0.001;entryY=0.496;entryDx=0;entryDy=0;entryPerimeter=0;" parent="1" source="318" target="341" edge="1">
                    <mxGeometry relative="1" as="geometry">
                        <mxPoint x="280" y="240" as="sourcePoint"/>
                        <mxPoint x="630" y="-670" as="targetPoint"/>
                        <Array as="points">
                            <mxPoint x="250" y="230"/>
                            <mxPoint x="250" y="290"/>
                            <mxPoint x="-60" y="290"/>
                            <mxPoint x="-60" y="-730"/>
                            <mxPoint x="480" y="-730"/>
                            <mxPoint x="480" y="-670"/>
                        </Array>
                    </mxGeometry>
                </mxCell>
                <mxCell id="355" value="" style="edgeStyle=orthogonalEdgeStyle;rounded=1;jumpStyle=none;html=1;strokeColor=#000000;fontFamily=Helvetica;fontSize=12;fontColor=none;endArrow=classic;endFill=1;" parent="1" source="357" target="361" edge="1">
                    <mxGeometry relative="1" as="geometry"/>
                </mxCell>
                <mxCell id="356" style="edgeStyle=orthogonalEdgeStyle;rounded=1;jumpStyle=none;html=1;entryX=0;entryY=0.5;entryDx=0;entryDy=0;strokeColor=#000000;fontFamily=Helvetica;fontSize=12;fontColor=none;endArrow=classic;endFill=1;" parent="1" source="357" target="349" edge="1">
                    <mxGeometry relative="1" as="geometry"/>
                </mxCell>
                <mxCell id="357" value="Has employer?" style="html=1;whiteSpace=wrap;aspect=fixed;shape=isoRectangle;perimeterSpacing=0;" parent="1" vertex="1">
                    <mxGeometry x="826" y="-5" width="150" height="90" as="geometry"/>
                </mxCell>
                <mxCell id="358" value="Submit" style="text;html=1;align=center;verticalAlign=middle;resizable=0;points=[];autosize=1;strokeColor=none;fillColor=none;fontSize=12;fontFamily=Helvetica;fontColor=none;labelBackgroundColor=none;" parent="1" vertex="1">
                    <mxGeometry x="780" y="40" width="60" height="30" as="geometry"/>
                </mxCell>
                <mxCell id="359" style="edgeStyle=orthogonalEdgeStyle;rounded=1;jumpStyle=none;html=1;strokeColor=#000000;fontFamily=Helvetica;fontSize=12;fontColor=none;endArrow=classic;endFill=1;" parent="1" source="361" target="370" edge="1">
                    <mxGeometry relative="1" as="geometry"/>
                </mxCell>
                <mxCell id="360" style="edgeStyle=orthogonalEdgeStyle;rounded=1;jumpStyle=none;html=1;exitX=0;exitY=0.5;exitDx=0;exitDy=0;strokeColor=#000000;fontFamily=Helvetica;fontSize=12;fontColor=none;endArrow=classic;endFill=1;entryX=0.5;entryY=0;entryDx=0;entryDy=0;" parent="1" source="361" target="328" edge="1">
                    <mxGeometry relative="1" as="geometry"/>
                </mxCell>
                <mxCell id="401" style="edgeStyle=none;html=1;exitX=0;exitY=0.75;exitDx=0;exitDy=0;" edge="1" parent="1" source="361" target="351">
                    <mxGeometry relative="1" as="geometry">
                        <Array as="points">
                            <mxPoint x="780" y="-85"/>
                            <mxPoint x="780" y="350"/>
                        </Array>
                    </mxGeometry>
                </mxCell>
                <mxCell id="361" value="Employer Waiting to Assign For Edits" style="rounded=1;whiteSpace=wrap;html=1;" parent="1" vertex="1">
                    <mxGeometry x="841" y="-130" width="120" height="60" as="geometry"/>
                </mxCell>
                <mxCell id="362" value="No" style="text;html=1;align=center;verticalAlign=middle;resizable=0;points=[];autosize=1;strokeColor=none;fillColor=none;fontSize=12;fontFamily=Helvetica;fontColor=none;" parent="1" vertex="1">
                    <mxGeometry x="990" y="10" width="40" height="30" as="geometry"/>
                </mxCell>
                <mxCell id="363" value="Yes" style="text;html=1;align=center;verticalAlign=middle;resizable=0;points=[];autosize=1;strokeColor=none;fillColor=none;fontSize=12;fontFamily=Helvetica;fontColor=none;" parent="1" vertex="1">
                    <mxGeometry x="900" y="-50" width="40" height="30" as="geometry"/>
                </mxCell>
                <mxCell id="364" value="Abort / cancel Edits" style="text;html=1;align=center;verticalAlign=middle;resizable=0;points=[];autosize=1;strokeColor=none;fillColor=none;fontSize=12;fontFamily=Helvetica;fontColor=none;" parent="1" vertex="1">
                    <mxGeometry x="470" y="190" width="130" height="30" as="geometry"/>
                </mxCell>
                <mxCell id="365" value="Abort / cancel Edits" style="text;html=1;align=center;verticalAlign=middle;resizable=0;points=[];autosize=1;strokeColor=none;fillColor=none;fontSize=12;fontFamily=Helvetica;fontColor=none;" parent="1" vertex="1">
                    <mxGeometry x="540" y="80" width="130" height="30" as="geometry"/>
                </mxCell>
                <mxCell id="366" value="Abort / cancel Edits" style="text;html=1;align=center;verticalAlign=middle;resizable=0;points=[];autosize=1;strokeColor=none;fillColor=none;fontSize=12;fontFamily=Helvetica;fontColor=none;" parent="1" vertex="1">
                    <mxGeometry x="850" y="100" width="130" height="30" as="geometry"/>
                </mxCell>
                <mxCell id="367" value="" style="edgeStyle=orthogonalEdgeStyle;rounded=1;jumpStyle=none;html=1;strokeColor=#000000;fontFamily=Helvetica;fontSize=12;fontColor=none;endArrow=classic;endFill=1;" parent="1" source="370" target="374" edge="1">
                    <mxGeometry relative="1" as="geometry"/>
                </mxCell>
                <mxCell id="368" value="" style="edgeStyle=orthogonalEdgeStyle;rounded=1;jumpStyle=none;html=1;strokeColor=#000000;fontFamily=Helvetica;fontSize=12;fontColor=none;endArrow=classic;endFill=1;exitX=0;exitY=0.5;exitDx=0;exitDy=0;" parent="1" source="370" edge="1">
                    <mxGeometry relative="1" as="geometry">
                        <mxPoint x="710" y="10" as="targetPoint"/>
                    </mxGeometry>
                </mxCell>
                <mxCell id="369" style="edgeStyle=orthogonalEdgeStyle;html=1;entryX=0.803;entryY=0.293;entryDx=0;entryDy=0;entryPerimeter=0;strokeColor=#000000;exitX=1;exitY=0.75;exitDx=0;exitDy=0;" parent="1" source="370" target="357" edge="1">
                    <mxGeometry relative="1" as="geometry">
                        <Array as="points">
                            <mxPoint x="990" y="-205"/>
                            <mxPoint x="990" y="-10"/>
                            <mxPoint x="947" y="-10"/>
                        </Array>
                    </mxGeometry>
                </mxCell>
                <mxCell id="404" style="edgeStyle=none;html=1;strokeColor=default;endArrow=none;endFill=0;" edge="1" parent="1">
                    <mxGeometry relative="1" as="geometry">
                        <mxPoint x="780" y="-80" as="targetPoint"/>
                        <mxPoint x="840" y="-210" as="sourcePoint"/>
                        <Array as="points">
                            <mxPoint x="780" y="-210"/>
                        </Array>
                    </mxGeometry>
                </mxCell>
                <mxCell id="370" value="Employer&lt;br&gt;Approve&lt;br&gt;Edits" style="rounded=1;whiteSpace=wrap;html=1;" parent="1" vertex="1">
                    <mxGeometry x="841" y="-250" width="120" height="60" as="geometry"/>
                </mxCell>
                <mxCell id="371" style="edgeStyle=orthogonalEdgeStyle;html=1;exitX=1;exitY=0.5;exitDx=0;exitDy=0;entryX=1;entryY=0.25;entryDx=0;entryDy=0;strokeColor=#000000;fontColor=#000000;" parent="1" source="374" target="318" edge="1">
                    <mxGeometry relative="1" as="geometry">
                        <Array as="points">
                            <mxPoint x="1190" y="-330"/>
                            <mxPoint x="1190" y="215"/>
                        </Array>
                    </mxGeometry>
                </mxCell>
                <mxCell id="372" style="edgeStyle=orthogonalEdgeStyle;html=1;exitX=0;exitY=0.5;exitDx=0;exitDy=0;strokeColor=#000000;fontColor=#000000;entryX=0.5;entryY=0;entryDx=0;entryDy=0;" parent="1" source="374" target="328" edge="1">
                    <mxGeometry relative="1" as="geometry">
                        <mxPoint x="610" y="40" as="targetPoint"/>
                    </mxGeometry>
                </mxCell>
                <mxCell id="373" style="edgeStyle=orthogonalEdgeStyle;html=1;entryX=0.75;entryY=0;entryDx=0;entryDy=0;strokeColor=#000000;fontColor=#000000;" parent="1" source="374" target="349" edge="1">
                    <mxGeometry relative="1" as="geometry"/>
                </mxCell>
                <mxCell id="405" style="edgeStyle=none;html=1;exitX=0;exitY=0.75;exitDx=0;exitDy=0;endArrow=none;endFill=0;" edge="1" parent="1" source="374">
                    <mxGeometry relative="1" as="geometry">
                        <mxPoint x="780" y="-200" as="targetPoint"/>
                        <Array as="points">
                            <mxPoint x="780" y="-315"/>
                        </Array>
                    </mxGeometry>
                </mxCell>
                <mxCell id="374" value="Edits Need&lt;br&gt;Action" style="rounded=1;whiteSpace=wrap;html=1;" parent="1" vertex="1">
                    <mxGeometry x="841" y="-360" width="120" height="60" as="geometry"/>
                </mxCell>
                <mxCell id="375" value="Reject" style="text;html=1;align=center;verticalAlign=middle;resizable=0;points=[];autosize=1;strokeColor=none;fillColor=none;fontSize=12;fontFamily=Helvetica;fontColor=none;" parent="1" vertex="1">
                    <mxGeometry x="900" y="-290" width="60" height="30" as="geometry"/>
                </mxCell>
                <mxCell id="376" value="Edit Periods &lt;br&gt;or Employers" style="text;html=1;align=center;verticalAlign=middle;resizable=0;points=[];autosize=1;strokeColor=none;fillColor=none;fontSize=12;fontFamily=Helvetica;fontColor=none;labelBackgroundColor=none;" parent="1" vertex="1">
                    <mxGeometry x="620" y="-70" width="90" height="40" as="geometry"/>
                </mxCell>
                <mxCell id="377" value="&lt;font color=&quot;#000000&quot;&gt;Assign&lt;/font&gt;" style="text;html=1;align=center;verticalAlign=middle;resizable=0;points=[];autosize=1;strokeColor=none;fillColor=none;" parent="1" vertex="1">
                    <mxGeometry x="900" y="-170" width="60" height="30" as="geometry"/>
                </mxCell>
                <mxCell id="378" value="Approve" style="text;html=1;align=center;verticalAlign=middle;resizable=0;points=[];autosize=1;strokeColor=none;fillColor=none;fontColor=#000000;" parent="1" vertex="1">
                    <mxGeometry x="990" y="-130" width="70" height="30" as="geometry"/>
                </mxCell>
                <mxCell id="379" value="&lt;font color=&quot;#000000&quot;&gt;Approve&lt;/font&gt;" style="text;html=1;align=center;verticalAlign=middle;resizable=0;points=[];autosize=1;strokeColor=none;fillColor=none;" parent="1" vertex="1">
                    <mxGeometry x="684" y="220" width="70" height="30" as="geometry"/>
                </mxCell>
                <mxCell id="380" value="Reject" style="text;html=1;align=center;verticalAlign=middle;resizable=0;points=[];autosize=1;strokeColor=none;fillColor=none;fontSize=12;fontFamily=Helvetica;fontColor=none;labelBackgroundColor=none;" parent="1" vertex="1">
                    <mxGeometry x="1080" y="-180" width="60" height="30" as="geometry"/>
                </mxCell>
                <mxCell id="381" value="Additional Documents Required" style="text;html=1;align=center;verticalAlign=middle;resizable=0;points=[];autosize=1;strokeColor=none;fillColor=none;fontSize=12;fontFamily=Helvetica;fontColor=none;labelBackgroundColor=none;" parent="1" vertex="1">
                    <mxGeometry x="540" y="400" width="190" height="30" as="geometry"/>
                </mxCell>
                <mxCell id="382" value="Edit Periods or Employers" style="text;html=1;align=center;verticalAlign=middle;resizable=0;points=[];autosize=1;strokeColor=none;fillColor=none;fontSize=12;fontFamily=Helvetica;fontColor=none;labelBackgroundColor=none;" parent="1" vertex="1">
                    <mxGeometry x="830" y="150" width="160" height="30" as="geometry"/>
                </mxCell>
                <mxCell id="383" value="Submit / Apply" style="text;html=1;align=center;verticalAlign=middle;resizable=0;points=[];autosize=1;strokeColor=none;fillColor=none;fontColor=#000000;" parent="1" vertex="1">
                    <mxGeometry x="1250" y="-370" width="100" height="30" as="geometry"/>
                </mxCell>
                <mxCell id="384" value="Abort / cancel Edits" style="text;html=1;align=center;verticalAlign=middle;resizable=0;points=[];autosize=1;strokeColor=none;fillColor=none;fontSize=12;fontFamily=Helvetica;fontColor=none;" parent="1" vertex="1">
                    <mxGeometry x="1020" y="-360" width="130" height="30" as="geometry"/>
                </mxCell>
                <mxCell id="385" value="&lt;font color=&quot;#000000&quot;&gt;Approve&lt;/font&gt;" style="text;html=1;align=center;verticalAlign=middle;resizable=0;points=[];autosize=1;strokeColor=none;fillColor=none;fontColor=#FF0000;" parent="1" vertex="1">
                    <mxGeometry x="800" y="-590" width="70" height="30" as="geometry"/>
                </mxCell>
                <mxCell id="386" value="&lt;font color=&quot;#000000&quot;&gt;Approve / Reject&lt;/font&gt;" style="text;html=1;align=center;verticalAlign=middle;resizable=0;points=[];autosize=1;strokeColor=none;fillColor=none;fontColor=#FF0000;" parent="1" vertex="1">
                    <mxGeometry x="949" y="-530" width="110" height="30" as="geometry"/>
                </mxCell>
                <mxCell id="387" value="&lt;font color=&quot;#000000&quot;&gt;Reject&lt;/font&gt;" style="text;html=1;align=center;verticalAlign=middle;resizable=0;points=[];autosize=1;strokeColor=none;fillColor=none;fontColor=#FF0000;" parent="1" vertex="1">
                    <mxGeometry x="1055" y="-700" width="60" height="30" as="geometry"/>
                </mxCell>
                <mxCell id="388" value="&lt;font color=&quot;#000000&quot;&gt;Reject&lt;/font&gt;" style="text;html=1;align=center;verticalAlign=middle;resizable=0;points=[];autosize=1;strokeColor=none;fillColor=none;fontColor=#FF0000;" parent="1" vertex="1">
                    <mxGeometry x="540" y="-260" width="60" height="30" as="geometry"/>
                </mxCell>
                <mxCell id="391" style="edgeStyle=none;html=1;exitX=0.5;exitY=1;exitDx=0;exitDy=0;entryX=0.5;entryY=0;entryDx=0;entryDy=0;" edge="1" parent="1" source="389" target="278">
                    <mxGeometry relative="1" as="geometry"/>
                </mxCell>
                <mxCell id="389" value="Draft" style="rounded=1;whiteSpace=wrap;html=1;" vertex="1" parent="1">
                    <mxGeometry x="270" y="-810" width="120" height="60" as="geometry"/>
                </mxCell>
                <mxCell id="393" value="Closed" style="text;html=1;align=center;verticalAlign=middle;resizable=0;points=[];autosize=1;strokeColor=none;fillColor=none;fontSize=12;fontFamily=Helvetica;fontColor=none;labelBackgroundColor=none;" vertex="1" parent="1">
                    <mxGeometry x="180" y="320" width="60" height="30" as="geometry"/>
                </mxCell>
                <mxCell id="396" value="Closed" style="text;html=1;align=center;verticalAlign=middle;resizable=0;points=[];autosize=1;strokeColor=none;fillColor=none;fontSize=12;fontFamily=Helvetica;fontColor=none;labelBackgroundColor=none;" vertex="1" parent="1">
                    <mxGeometry x="-60" y="330" width="60" height="30" as="geometry"/>
                </mxCell>
                <mxCell id="397" value="Closed" style="text;html=1;align=center;verticalAlign=middle;resizable=0;points=[];autosize=1;strokeColor=none;fillColor=none;fontSize=12;fontFamily=Helvetica;fontColor=none;labelBackgroundColor=none;" vertex="1" parent="1">
                    <mxGeometry x="240" y="290" width="60" height="30" as="geometry"/>
                </mxCell>
                <mxCell id="399" value="Closed" style="text;html=1;align=center;verticalAlign=middle;resizable=0;points=[];autosize=1;strokeColor=none;fillColor=none;fontSize=12;fontFamily=Helvetica;fontColor=none;labelBackgroundColor=none;" vertex="1" parent="1">
                    <mxGeometry x="520" y="310" width="60" height="30" as="geometry"/>
                </mxCell>
                <mxCell id="402" value="Closed" style="text;html=1;align=center;verticalAlign=middle;resizable=0;points=[];autosize=1;strokeColor=none;fillColor=none;fontSize=12;fontFamily=Helvetica;fontColor=none;labelBackgroundColor=none;" vertex="1" parent="1">
                    <mxGeometry x="718" y="320" width="60" height="30" as="geometry"/>
                </mxCell>
                <mxCell id="414" value="Closed" style="text;html=1;align=center;verticalAlign=middle;resizable=0;points=[];autosize=1;strokeColor=none;fillColor=none;fontSize=12;fontFamily=Helvetica;fontColor=none;labelBackgroundColor=none;" vertex="1" parent="1">
                    <mxGeometry x="720" y="-430" width="60" height="30" as="geometry"/>
                </mxCell>
                <mxCell id="416" value="Closed" style="text;html=1;align=center;verticalAlign=middle;resizable=0;points=[];autosize=1;strokeColor=none;fillColor=none;fontSize=12;fontFamily=Helvetica;fontColor=none;labelBackgroundColor=none;" vertex="1" parent="1">
                    <mxGeometry x="880" y="-450" width="60" height="30" as="geometry"/>
                </mxCell>
            </root>
        </mxGraphModel>
    </diagram>
</mxfile>